# xmcd
# 
# Track frame offsets:
#     150
#     18999
#     30509
#     45846
#     60201
#     79972
#     93090
#     108622
#     119189
#     136962
#     153016
#     169244
# 
# Disc length: 2454
# 
# Revision: 2
# Processed by: cddbd v1.5.2PL0 Copyright (c) Steve Scherf et al.
# Submitted via: fre:ac v1.0.31
# 
DISCID=8b09940c
DTITLE=Lee Vilensky Trio - Destination: Love
DYEAR=2014
DGENRE=Blues
TTITLE0=A Good Day To Spy
TTITLE1=Destination Love
TTITLE2=Cheyenne
TTITLE3=(C'Mon Let's) Stroll With The LV3
TTITLE4=Crying Over Someone Like You
TTITLE5=Motel 8 and Half
TTITLE6=One Last Kiss
TTITLE7=Me Encanta Tu Mente
TTITLE8=Chill Factor
TTITLE9=Texas Toast
TTITLE10=Doublecross On South Street
TTITLE11=You Only Live Twice
EXTD=
EXTT0=
EXTT1=
EXTT2=
EXTT3=
EXTT4=
EXTT5=
EXTT6=
EXTT7=
EXTT8=
EXTT9=
EXTT10=
EXTT11=
PLAYORDER=
